<svg version="1.1" class="flor"  viewBox="0 0 61.3 23.3" >
<g>
	<g>
		<polygon style="fill-rule:evenodd;clip-rule:evenodd;fill:#D4995B;" points="16.4,7.5 16.8,7.5 17.3,7.5 17.9,7.5 18.3,7.6 
			18.8,7.7 19.3,7.8 19.8,8 20.3,8.1 20.8,8.3 21.2,8.5 21.7,8.7 22.1,8.9 22.5,9.1 22.9,9.3 23.3,9.5 23.6,9.7 24.1,10 24.5,10.4 
			25,10.8 25.4,11.3 25.8,11.8 26.2,12.4 26.4,13 26.6,13.7 26.6,14.1 26.5,14.7 26.3,15.1 26.1,15.6 25.7,16 25.2,16.2 24.5,16.4 
			23.7,16.4 23.3,16.3 22.8,16.1 22.5,15.9 22.2,15.5 22,15 21.8,14.5 21.7,13.9 21.6,13.2 21.5,12.8 21.4,12.5 21.3,12.1 
			21.2,11.6 21.1,11.2 20.9,10.8 20.6,10.3 20.4,9.9 20.1,9.5 19.7,9.1 19.3,8.7 18.9,8.4 18.3,8.1 17.8,7.9 17.1,7.7 16.4,7.5 		
			"/>
		<polygon style="fill-rule:evenodd;clip-rule:evenodd;fill:#D4995B;" points="45.2,7.5 44.7,7.5 44.2,7.5 43.7,7.5 43.2,7.6 
			42.7,7.7 42.2,7.8 41.7,8 41.2,8.1 40.8,8.3 40.3,8.5 39.9,8.7 39.4,8.9 39,9.1 38.7,9.3 38.3,9.5 37.9,9.7 37.5,10 37,10.4 
			36.5,10.8 36.1,11.3 35.7,11.8 35.4,12.4 35.1,13 35,13.7 35,14.1 35.1,14.7 35.2,15.1 35.5,15.6 35.9,16 36.4,16.2 37,16.4 
			37.8,16.4 38.3,16.3 38.7,16.1 39,15.9 39.3,15.5 39.5,15 39.7,14.5 39.9,13.9 40,13.2 40,12.8 40.1,12.5 40.2,12.1 40.3,11.6 
			40.5,11.2 40.7,10.8 40.9,10.3 41.2,9.9 41.4,9.5 41.8,9.1 42.2,8.7 42.7,8.4 43.2,8.1 43.8,7.9 44.4,7.7 45.2,7.5 		"/>
		<polygon style="fill-rule:evenodd;clip-rule:evenodd;fill:#D4995B;" points="19.9,21.6 20.3,21.8 20.6,22 21,22.2 21.3,22.3 
			21.7,22.5 22.1,22.6 22.5,22.7 22.9,22.8 23.3,22.9 23.7,23 24.1,23.1 24.5,23.1 24.9,23.1 25.3,23.1 25.7,23 26.2,22.9 
			26.7,22.8 27.3,22.6 27.9,22.3 28.5,22 29.1,21.6 29.6,21.2 30.2,20.6 30.8,20 31.3,20.6 31.8,21.1 32.4,21.5 32.9,21.9 
			33.5,22.2 34,22.5 34.5,22.7 35.1,22.9 35.6,23 36.2,23.1 36.7,23.1 37.2,23.1 37.8,23 38.3,22.9 38.8,22.8 39.3,22.7 39.8,22.5 
			40.3,22.3 40.7,22.1 41.2,21.8 41.7,21.6 42.1,21.3 42.5,21 42.9,20.8 43.3,20.5 43.7,20.2 44,19.9 44.4,19.6 44.7,19.3 45,19 
			45.2,18.8 45.5,18.5 46,18 46.4,17.6 46.8,17.2 47.3,16.9 47.7,16.6 48.1,16.3 48.5,16.1 48.9,15.8 49.3,15.6 49.8,15.5 
			50.2,15.3 50.6,15.1 51.1,15 51.5,14.8 52,14.7 52.5,14.6 53,14.5 53.5,14.5 54.1,14.5 54.7,14.7 55.3,14.8 56,15 56.6,15.3 
			57.3,15.6 57.9,16 58.5,16.3 59.1,16.7 59.6,17.1 60.1,17.6 60.6,18 61,18.4 61.3,18.9 61.1,18.4 60.9,17.9 60.6,17.4 60.3,16.9 
			60,16.4 59.6,16 59.2,15.6 58.8,15.2 58.4,14.9 58,14.5 57.6,14.2 57.3,14 57,13.8 56.6,13.6 56.4,13.4 56.2,13.3 56,13.2 
			55.6,13.1 55.2,12.9 54.6,12.7 54,12.5 53.3,12.4 52.5,12.3 51.6,12.2 50.7,12.2 49.7,12.3 48.7,12.5 47.6,12.9 46.5,13.3 
			45.4,14 44.2,14.7 43.1,15.7 42,16.7 40.8,17.3 39.8,17.8 38.8,18.1 37.8,18.1 36.9,18 36,17.8 35.2,17.4 34.4,17 33.7,16.4 
			33.1,15.8 32.5,15.2 32,14.6 31.5,13.9 31.1,13.3 30.8,12.7 30.4,13.3 30.1,13.9 29.6,14.6 29,15.2 28.4,15.8 27.8,16.4 27.1,17 
			26.3,17.4 25.5,17.8 24.6,18 23.7,18.1 22.7,18.1 21.7,17.8 20.7,17.3 19.6,16.7 18.4,15.7 17.3,14.7 16.1,14 15,13.3 13.9,12.9 
			12.9,12.5 11.8,12.3 10.9,12.2 9.9,12.2 9.1,12.3 8.3,12.4 7.5,12.5 6.9,12.7 6.4,12.9 5.9,13.1 5.6,13.2 5.3,13.3 5.1,13.4 
			4.9,13.6 4.6,13.8 4.2,14 3.9,14.2 3.5,14.5 3.1,14.9 2.7,15.2 2.3,15.6 1.9,16 1.6,16.4 1.2,16.9 0.9,17.4 0.6,17.9 0.4,18.4 
			0.2,18.9 0.5,18.4 1,18 1.4,17.6 1.9,17.1 2.5,16.7 3,16.3 3.6,16 4.3,15.6 4.9,15.3 5.5,15 6.2,14.8 6.8,14.7 7.4,14.5 8,14.5 
			8.6,14.5 9.1,14.6 9.6,14.7 10,14.8 10.5,15 10.9,15.1 11.3,15.3 11.7,15.5 12.2,15.6 12.6,15.8 13,16.1 13.4,16.3 13.8,16.6 
			14.3,16.9 14.7,17.2 15.1,17.6 15.6,18 16,18.5 16.4,18.9 16.8,19.2 17.2,19.7 17.7,20.1 18.2,20.4 18.7,20.9 19.3,21.2 
			19.9,21.6 		"/>
		<polygon style="fill-rule:evenodd;clip-rule:evenodd;fill:#D4995B;" points="30.8,11 32,10.9 32.9,10.5 33.6,9.9 34.1,9.2 
			34.5,8.4 34.7,7.5 34.9,6.6 35,5.7 35,4.8 35.1,4.1 35.2,3.4 35.3,2.8 35.5,2.3 35.7,1.8 35.9,1.5 36.2,1.2 35.5,1.2 34.9,1.3 
			34.3,1.5 33.7,1.8 33.3,2.3 32.9,2.7 32.6,3.1 32.4,3.6 32.4,2.8 32.3,2 32,1.4 31.7,1 31.4,0.6 31.1,0.3 30.9,0.1 30.8,0 
			30.7,0.1 30.5,0.3 30.2,0.6 29.9,1 29.6,1.4 29.3,2 29.1,2.8 29.1,3.6 28.9,3.1 28.7,2.7 28.3,2.3 27.8,1.8 27.3,1.5 26.7,1.3 
			26,1.2 25.4,1.2 25.6,1.5 25.9,1.8 26.1,2.3 26.2,2.8 26.3,3.4 26.4,4.1 26.5,4.8 26.6,5.7 26.7,6.6 26.8,7.5 27,8.4 27.4,9.2 
			27.9,9.9 28.7,10.5 29.6,10.9 30.8,11 		"/>
	</g>
</g>
</svg>
